<?xml version="1.0" encoding="UTF-8" standalone="no"?>
<!-- Created with Inkscape (http://www.inkscape.org/) -->

<svg
   xmlns:dc="http://purl.org/dc/elements/1.1/"
   xmlns:cc="http://creativecommons.org/ns#"
   xmlns:rdf="http://www.w3.org/1999/02/22-rdf-syntax-ns#"
   xmlns:svg="http://www.w3.org/2000/svg"
   xmlns="http://www.w3.org/2000/svg"
   xmlns:xlink="http://www.w3.org/1999/xlink"
   xmlns:sodipodi="http://sodipodi.sourceforge.net/DTD/sodipodi-0.dtd"
   xmlns:inkscape="http://www.inkscape.org/namespaces/inkscape"
   id="svg2"
   version="1.1"
   inkscape:version="0.91 r13725"
   width="2481"
   height="3503"
   sodipodi:docname="Pepper-and-Carrot_by-David-Revoy_E21P03.svg">
  <metadata
     id="metadata8">
    <rdf:RDF>
      <cc:Work
         rdf:about="">
        <dc:format>image/svg+xml</dc:format>
        <dc:type
           rdf:resource="http://purl.org/dc/dcmitype/StillImage" />
        <dc:title />
      </cc:Work>
    </rdf:RDF>
  </metadata>
  <defs
     id="defs6">
    <filter
       style="color-interpolation-filters:sRGB"
       id="filter4375-4-1-1-1-9-6-9-2-1"
       inkscape:label="deevad outline effect">
      <feFlood
         id="feFlood4377-7-9-0-8-1-0-2-2-06"
         flood-opacity="1"
         flood-color="rgb(0,0,0)"
         result="flood" />
      <feComposite
         id="feComposite4379-3-8-8-2-77-6-0-8-3"
         in2="SourceGraphic"
         in="flood"
         operator="in"
         result="composite1" />
      <feMorphology
         id="feMorphology4393-1-0-49-8-9-2-2-9-2"
         operator="dilate"
         radius="4"
         result="result3" />
      <feComposite
         id="feComposite4385-9-5-7-0-8-6-3-7-0"
         in2="result3"
         in="SourceGraphic"
         operator="over"
         result="composite2" />
    </filter>
    <filter
       style="color-interpolation-filters:sRGB"
       id="filter4375-4-1-1-1-9-6-9-2-1-3"
       inkscape:label="deevad outline effect">
      <feFlood
         id="feFlood4377-7-9-0-8-1-0-2-2-06-7"
         flood-opacity="1"
         flood-color="rgb(0,0,0)"
         result="flood" />
      <feComposite
         id="feComposite4379-3-8-8-2-77-6-0-8-3-5"
         in2="SourceGraphic"
         in="flood"
         operator="in"
         result="composite1" />
      <feMorphology
         id="feMorphology4393-1-0-49-8-9-2-2-9-2-9"
         operator="dilate"
         radius="4"
         result="result3" />
      <feComposite
         id="feComposite4385-9-5-7-0-8-6-3-7-0-2"
         in2="result3"
         in="SourceGraphic"
         operator="over"
         result="composite2" />
    </filter>
  </defs>
  <sodipodi:namedview
     pagecolor="#ffffff"
     bordercolor="#666666"
     borderopacity="1"
     objecttolerance="10"
     gridtolerance="10"
     guidetolerance="10"
     inkscape:pageopacity="0"
     inkscape:pageshadow="2"
     inkscape:window-width="1366"
     inkscape:window-height="745"
     id="namedview4"
     showgrid="false"
     inkscape:zoom="0.48008763"
     inkscape:cx="1288.7995"
     inkscape:cy="2914.1615"
     inkscape:window-x="-8"
     inkscape:window-y="-8"
     inkscape:window-maximized="1"
     inkscape:current-layer="layer1" />
  <g
     inkscape:groupmode="layer"
     id="layer2"
     inkscape:label="artwork"
     sodipodi:insensitive="true"
     style="display:inline">
    <image
       sodipodi:absref="C:\Users\Nicolas\Documents\GitHub\peppercarrot_ep21_translation\fr\..\gfx_Pepper-and-Carrot_by-David-Revoy_E21P03.png"
       xlink:href="../gfx_Pepper-and-Carrot_by-David-Revoy_E21P03.png"
       y="0"
       x="0"
       id="image10"
       height="3503"
       width="2481" />
  </g>
  <g
     inkscape:groupmode="layer"
     id="layer4"
     inkscape:label="transla-notes">
    <path
       style="color:#000000;clip-rule:nonzero;display:inline;overflow:visible;visibility:visible;opacity:0.481;isolation:auto;mix-blend-mode:normal;color-interpolation:sRGB;color-interpolation-filters:linearRGB;solid-color:#000000;solid-opacity:1;fill:#ffe680;fill-opacity:1;fill-rule:nonzero;stroke:#565656;stroke-width:1.20000005;stroke-linecap:butt;stroke-linejoin:miter;stroke-miterlimit:4;stroke-dasharray:none;stroke-dashoffset:0;stroke-opacity:1;marker:none;color-rendering:auto;image-rendering:auto;shape-rendering:auto;text-rendering:auto;enable-background:accumulate"
       d="m -530.39088,479.24411 0,189.0351 203.83,0 0,-90.9805 10,0 0,15.6308 30.9825,-26.9824 -30.9825,-26.9804 0,16.6171 -10,0 0,-76.3397 -203.83,0 z"
       id="rect4191-6"
       inkscape:connector-curvature="0" />
    <flowRoot
       xml:space="preserve"
       id="flowRoot4212-7"
       style="font-style:normal;font-variant:normal;font-weight:normal;font-stretch:normal;font-size:25.3241539px;line-height:125%;font-family:Lavi;-inkscape-font-specification:'Lavi, Normal';text-align:center;letter-spacing:0px;word-spacing:0px;writing-mode:lr-tb;text-anchor:middle;display:inline;opacity:0.481;fill:#000000;fill-opacity:1;stroke:none;stroke-width:1px;stroke-linecap:butt;stroke-linejoin:miter;stroke-opacity:1"
       transform="translate(-300.70048,-528.99948)"><flowRegion
         id="flowRegion4214-5"><rect
           id="rect4216-3"
           width="291.95547"
           height="247.52747"
           x="-275.14545"
           y="1061.6674" /></flowRegion><flowPara
         id="flowPara4218-5">Edit this one,</flowPara><flowPara
         id="flowPara4562">all other one</flowPara><flowPara
         id="flowPara4564">are linked</flowPara></flowRoot>    <text
       xml:space="preserve"
       style="font-style:normal;font-variant:normal;font-weight:normal;font-stretch:normal;font-size:17.80657005px;line-height:125%;font-family:Lavi;-inkscape-font-specification:Lavi;letter-spacing:0px;word-spacing:0px;display:inline;fill:#000000;fill-opacity:1;stroke:#000000;stroke-width:0.99236238;stroke-miterlimit:4;stroke-dasharray:none;stroke-opacity:1;filter:url(#filter4375-4-1-1-1-9-6-9-2-1)"
       x="787.65729"
       y="1584.5073"
       id="text4580-1-7-3-6"
       sodipodi:linespacing="125%"
       transform="matrix(0.96380061,-0.56217228,-0.1779318,1.4896521,-746.21658,-1288.3515)"><tspan
         sodipodi:role="line"
         id="tspan4582-8-5-6-1"
         x="787.65729"
         y="1584.5073"
         style="font-size:70px;fill:#ffffff">Clap</tspan></text>
  </g>
  <g
     inkscape:groupmode="layer"
     id="layer3"
     inkscape:label="speechbubbles">
    <path
       style="fill:#ffffff;stroke:none"
       d="m 1763.2097,3373.8027 c -30.8124,-34.3662 -25.8541,-47.6109 -18.9436,-62.2257 6.9105,-14.6148 14.8374,-27.108 10.9705,-36.994 -3.867,-9.8861 -14.2238,-19.7061 -22.8865,-25.9901 -8.6627,-6.2841 -5.3996,-15.7168 -2.7618,-26.5453 2.6377,-10.8287 2.295,-70.6188 2.295,-70.6188 0,0 -21.7921,33.8606 -27.104,47.2747 -5.3119,13.4142 -8.2237,17.3902 -8.8501,23.3422 -0.6264,5.9522 1.8011,20.8694 9.0189,29.5843 7.2187,8.7149 10.0825,15.2604 17.0067,20.6384 6.9242,5.3778 9.6349,18.8395 6.7982,31.0677 -2.8367,12.2283 -5.0745,40.9515 8.0372,53.7993 13.1118,12.8478 26.4195,16.6673 26.4195,16.6673 z"
       id="path3023"
       inkscape:connector-curvature="0"
       sodipodi:nodetypes="csssscssssssc" />
    <path
       style="color:#000000;display:inline;overflow:visible;visibility:visible;fill:#ffffff;fill-opacity:1;fill-rule:nonzero;stroke:none;stroke-width:1px;marker:none;enable-background:accumulate"
       d="m 1716.3189,2923.1112 c 34.786,1.1962 66.2372,56.7644 63.2317,144.9674 -3.0055,88.2028 -4.5187,163.0274 -68.8145,162.9015 -61.9626,-0.1213 -68.5477,-79.1396 -65.06,-155.6055 3.4877,-76.4658 17.5082,-148.2749 70.6428,-152.2634 z"
       id="path3565"
       inkscape:connector-curvature="0"
       sodipodi:nodetypes="csssc" />
    <rect
       style="color:#000000;clip-rule:nonzero;display:inline;overflow:visible;visibility:visible;opacity:1;isolation:auto;mix-blend-mode:normal;color-interpolation:sRGB;color-interpolation-filters:linearRGB;solid-color:#000000;solid-opacity:1;fill:#fff6d5;fill-opacity:1;fill-rule:nonzero;stroke:none;stroke-width:2.5999999;stroke-linecap:butt;stroke-linejoin:miter;stroke-miterlimit:4;stroke-dasharray:none;stroke-dashoffset:0;stroke-opacity:1;marker:none;color-rendering:auto;image-rendering:auto;shape-rendering:auto;text-rendering:auto;enable-background:accumulate"
       id="rect4632-8-6-1"
       width="507.55765"
       height="312.30713"
       x="136.0275"
       y="126.38309"
       ry="59.471672"
       rx="46.839886" />
    <path
       style="color:#000000;display:inline;overflow:visible;visibility:visible;fill:#fff6d5;fill-opacity:1;fill-rule:nonzero;stroke:none;stroke-width:1px;marker:none;enable-background:accumulate"
       d="m 940.51213,187.09791 c -57.85229,-2.47972 -116.89363,2.01361 -173.36433,-8.5679 l 37.4212,27.88989 c -22.70245,4.70575 -46.28036,-1.6825 -69.56116,-4.30372 l 19.39595,20.31109 c -53.75112,10.58559 -103.84276,2.648 -155.70302,3.66331 l 37.47704,33.22776 c 52.3295,-5.92211 102.84485,-18.5054 157.21484,-16.93489 l -16.31313,-21.39728 c 18.88431,-1.54845 37.87442,-2.50148 57.33745,-0.79498 l -23.57445,-25.38692 z"
       id="path4032"
       inkscape:connector-curvature="0"
       sodipodi:nodetypes="cccccccccccc" />
    <rect
       style="color:#000000;clip-rule:nonzero;display:inline;overflow:visible;visibility:visible;opacity:1;isolation:auto;mix-blend-mode:normal;color-interpolation:sRGB;color-interpolation-filters:linearRGB;solid-color:#000000;solid-opacity:1;fill:#fff6d5;fill-opacity:1;fill-rule:nonzero;stroke:none;stroke-width:2.5999999;stroke-linecap:butt;stroke-linejoin:miter;stroke-miterlimit:4;stroke-dasharray:none;stroke-dashoffset:0;stroke-opacity:1;marker:none;color-rendering:auto;image-rendering:auto;shape-rendering:auto;text-rendering:auto;enable-background:accumulate"
       id="rect4632-8-6-1-3"
       width="637.43567"
       height="156.15817"
       x="165.61385"
       y="1978.0618"
       ry="59.471672"
       rx="46.839886" />
    <rect
       style="color:#000000;clip-rule:nonzero;display:inline;overflow:visible;visibility:visible;opacity:1;isolation:auto;mix-blend-mode:normal;color-interpolation:sRGB;color-interpolation-filters:linearRGB;solid-color:#000000;solid-opacity:1;fill:#fff6d5;fill-opacity:1;fill-rule:nonzero;stroke:none;stroke-width:2.5999999;stroke-linecap:butt;stroke-linejoin:miter;stroke-miterlimit:4;stroke-dasharray:none;stroke-dashoffset:0;stroke-opacity:1;marker:none;color-rendering:auto;image-rendering:auto;shape-rendering:auto;text-rendering:auto;enable-background:accumulate"
       id="rect4632-8-6-1-3-6"
       width="728.46069"
       height="275.92798"
       x="115.32793"
       y="2152.7261"
       ry="59.471672"
       rx="46.839882" />
    <path
       style="color:#000000;display:inline;overflow:visible;visibility:visible;fill:#fff6d5;fill-opacity:1;fill-rule:nonzero;stroke:none;stroke-width:1px;marker:none;enable-background:accumulate"
       d="m 451.47326,2094.5313 c 16.15116,30.5837 137.39297,359.0212 138.4909,374.4865 -26.7919,6.7307 -69.46122,30.7757 -67.96336,35.6819 1.49799,4.9061 54.80813,61.2026 54.80813,61.2026 8.87532,14.6017 -13.16499,49.4442 -23.76845,53.15 29.2139,-13.78 51.41855,-37.3664 38.82537,-58.6231 1.33674,-7.7285 -41.22005,-47.3704 -44.60781,-50.3949 20.5817,-12.5899 65.50829,-33.99 71.18178,-41.5206 -0.35103,-12.0694 -106.43822,-317.4037 -129.32812,-371.0078 -22.88999,-53.6041 -37.63844,-2.9746 -37.63844,-2.9746 z"
       id="path5901"
       inkscape:connector-curvature="0"
       sodipodi:nodetypes="ccccccccsc" />
    <rect
       style="color:#000000;clip-rule:nonzero;display:inline;overflow:visible;visibility:visible;opacity:1;isolation:auto;mix-blend-mode:normal;color-interpolation:sRGB;color-interpolation-filters:linearRGB;solid-color:#000000;solid-opacity:1;fill:#fff6d5;fill-opacity:1;fill-rule:nonzero;stroke:none;stroke-width:2.5999999;stroke-linecap:butt;stroke-linejoin:miter;stroke-miterlimit:4;stroke-dasharray:none;stroke-dashoffset:0;stroke-opacity:1;marker:none;color-rendering:auto;image-rendering:auto;shape-rendering:auto;text-rendering:auto;enable-background:accumulate"
       id="rect4632-8-6-1-3-6-7"
       width="644.66943"
       height="206.70912"
       x="914.49701"
       y="1980.6588"
       ry="59.471672"
       rx="46.839882" />
    <path
       style="color:#000000;display:inline;overflow:visible;visibility:visible;fill:#fff6d5;fill-opacity:1;fill-rule:nonzero;stroke:none;stroke-width:1px;marker:none;enable-background:accumulate"
       d="m 887.7417,2240.8642 c 6.92936,-37.0391 21.45764,-43.6699 31.35162,-49.5792 2.75942,2.7071 8.4867,6.6327 8.4867,6.6327 0,0 26.15315,-32.3881 34.90123,-35.0943 8.74807,-2.7062 30.49801,12.7566 30.49801,12.7566 -1.79919,-5.3976 -62.42155,34.1812 -65.71463,49.497 -7.28896,-7.7153 -11.76667,-10.603 -13.32836,-14.3928 -6.82134,1.398 -23.32931,17.187 -26.19457,30.18 z"
       id="path4456"
       inkscape:connector-curvature="0"
       sodipodi:nodetypes="cccscccc" />
    <path
       style="color:#000000;display:inline;overflow:visible;visibility:visible;fill:#ffffff;fill-opacity:1;fill-rule:nonzero;stroke:none;stroke-width:1px;marker:none;enable-background:accumulate"
       d="m 2096.1766,2565.0144 c 39.872,-10.6381 61.6225,-24.977 67.2413,-72.9769 5.6188,-47.9997 15.2354,-36.197 15.2354,-36.197 l 14.5057,30.5013 c -4.0401,-1.515 1.377,80.1718 -96.9824,78.6726 z"
       id="path3072"
       inkscape:connector-curvature="0"
       sodipodi:nodetypes="csccc" />
    <path
       style="color:#000000;display:inline;overflow:visible;visibility:visible;fill:#ffffff;fill-opacity:1;fill-rule:nonzero;stroke:none;stroke-width:1px;marker:none;enable-background:accumulate"
       d="m 2053.6104,2465.7833 c -6.4725,-43.2275 10.7873,-158.0507 143.4741,-148.5946 132.6867,9.4558 154.262,63.4903 157.4981,79.7008 3.2362,16.2101 31.2839,108.0689 -72.2764,132.3845 -103.5605,24.3153 -196.3333,-1.3509 -228.6958,-63.4907 z"
       id="path3525-0-2"
       inkscape:connector-curvature="0" />
    <path
       style="color:#000000;display:inline;overflow:visible;visibility:visible;fill:#ffffff;fill-opacity:1;fill-rule:nonzero;stroke:none;stroke-width:1px;marker:none;enable-background:accumulate"
       d="m 2025.9253,2329.5059 c -7.3325,-41.3746 12.2207,-151.2759 162.5375,-142.2251 150.3168,9.0505 174.7587,60.7688 178.4248,76.2844 3.6663,15.5153 35.4407,103.4365 -81.8796,126.7098 -117.3206,23.2731 -222.4201,-1.293 -259.0827,-60.7691 z"
       id="path3525-0"
       inkscape:connector-curvature="0" />
    <path
       style="color:#000000;display:inline;overflow:visible;visibility:visible;fill:#ffffff;fill-opacity:1;fill-rule:nonzero;stroke:none;stroke-width:1px;marker:none;enable-background:accumulate"
       d="m 1836.7746,2118.35 c -7.4045,-42.6099 12.3408,-155.7925 164.1349,-146.4715 151.7939,9.3208 176.476,62.5832 180.1782,78.562 3.7023,15.9786 35.7889,106.5248 -82.6844,130.4929 -118.4735,23.968 -224.6058,-1.3316 -261.6287,-62.5834 z"
       id="path3525"
       inkscape:connector-curvature="0" />
    <path
       style="fill:#ffffff;stroke:none"
       d="m 1992.9899,2366.9534 c -13.2421,-47.0345 -5.3562,-58.4132 4.4561,-70.3921 9.8122,-11.979 19.7585,-21.4092 19.8049,-32.9363 0.046,-11.5272 -4.9354,-25.5894 -9.6937,-35.4038 -4.7584,-9.8149 0.651,-18.026 6.0057,-27.8968 5.3546,-9.8707 23.4174,-70.3481 23.4174,-70.3481 0,0 -33.03,23.4567 -41.2407,34.8646 -8.2107,11.408 -11.2574,15.5231 -13.5653,21.2787 -2.3081,5.7556 -6.3978,21.0609 -3.4987,32.7498 2.8989,11.689 9.9084,20.8743 13.6029,29.0774 3.6947,8.203 1.66,22.8753 -4.2771,34.0788 -5.9372,11.2035 -16.4685,39.2937 -10.289,57.516 6.1795,18.2222 15.2775,27.4118 15.2775,27.4118 z"
       id="path3023-3"
       inkscape:connector-curvature="0"
       sodipodi:nodetypes="csssscssssssc" />
  </g>
  <g
     inkscape:groupmode="layer"
     id="layer1"
     inkscape:label="txt">
    <text
       xml:space="preserve"
       style="font-style:normal;font-variant:normal;font-weight:normal;font-stretch:normal;font-size:12px;line-height:125%;font-family:Lavi;-inkscape-font-specification:Lavi;text-align:center;letter-spacing:0px;word-spacing:0px;text-anchor:middle;fill:#000000;fill-opacity:1;stroke:none"
       x="387.59586"
       y="186.71907"
       id="text4246-2-3-1"
       sodipodi:linespacing="125%"><tspan
         sodipodi:role="line"
         style="font-size:45px"
         x="395.50601"
         y="186.71907"
         id="tspan4148">En tant que Maire de </tspan><tspan
         sodipodi:role="line"
         style="font-size:45px"
         x="395.50601"
         y="242.96907"
         id="tspan4152">Komona, je déclare </tspan><tspan
         sodipodi:role="line"
         style="font-size:45px"
         x="395.50601"
         y="299.21906"
         id="tspan4245">le second Grand </tspan><tspan
         sodipodi:role="line"
         style="font-size:45px"
         x="395.50601"
         y="355.46906"
         id="tspan4154">Concours de Magie </tspan><tspan
         sodipodi:role="line"
         style="font-size:45px"
         x="387.59586"
         y="411.71906"
         id="tspan3469">ouvert !</tspan></text>
    <text
       xml:space="preserve"
       style="font-style:normal;font-variant:normal;font-weight:normal;font-stretch:normal;font-size:12px;line-height:125%;font-family:Lavi;-inkscape-font-specification:Lavi;text-align:center;letter-spacing:0px;word-spacing:0px;text-anchor:middle;fill:#000000;fill-opacity:1;stroke:none"
       x="485.24362"
       y="2041.2502"
       id="text4246-2-3-1-3"
       sodipodi:linespacing="125%"><tspan
         sodipodi:role="line"
         style="font-size:45px"
         x="485.24362"
         y="2041.2502"
         id="tspan4229">Je sais que vous attendiez cet</tspan><tspan
         sodipodi:role="line"
         style="font-size:45px"
         x="485.24362"
         y="2097.5002"
         id="tspan3473">évènement avec impatience !</tspan></text>
    <text
       xml:space="preserve"
       style="font-style:normal;font-variant:normal;font-weight:normal;font-stretch:normal;font-size:12px;line-height:125%;font-family:Lavi;-inkscape-font-specification:Lavi;text-align:center;letter-spacing:0px;word-spacing:0px;text-anchor:middle;fill:#000000;fill-opacity:1;stroke:none"
       x="480.90826"
       y="2217.3052"
       id="text4246-2-3-1-3-9"
       sodipodi:linespacing="125%"><tspan
         sodipodi:role="line"
         style="font-size:45px"
         x="480.90826"
         y="2217.3052"
         id="tspan4296">Merci d'avoir fait le déplacement</tspan><tspan
         sodipodi:role="line"
         style="font-size:45px"
         x="480.90826"
         y="2273.5552"
         id="tspan4300">depuis les quatre coins d'Hereva</tspan><tspan
         sodipodi:role="line"
         style="font-size:45px"
         x="480.90826"
         y="2329.8052"
         id="tspan4255"> pour découvrir notre grande</tspan><tspan
         sodipodi:role="line"
         style="font-size:45px"
         x="480.90826"
         y="2386.0552"
         id="tspan3481">arène ultra-sécurisée !</tspan></text>
    <text
       xml:space="preserve"
       style="font-style:normal;font-variant:normal;font-weight:normal;font-stretch:normal;font-size:12px;line-height:125%;font-family:Lavi;-inkscape-font-specification:Lavi;text-align:center;letter-spacing:0px;word-spacing:0px;text-anchor:middle;fill:#000000;fill-opacity:1;stroke:none"
       x="1236.2885"
       y="2044.714"
       id="text4246-2-3-1-3-9-9"
       sodipodi:linespacing="125%"><tspan
         sodipodi:role="line"
         style="font-size:45px"
         x="1244.1986"
         y="2044.714"
         id="tspan4359">Passons maintenant à </tspan><tspan
         sodipodi:role="line"
         style="font-size:45px"
         x="1236.2885"
         y="2100.9639"
         id="tspan3488">la présentation des</tspan><tspan
         sodipodi:role="line"
         style="font-size:45px"
         x="1236.2885"
         y="2157.2139"
         id="tspan3490">participantes !</tspan></text>
    <text
       xml:space="preserve"
       style="font-style:normal;font-variant:normal;font-weight:normal;font-stretch:normal;font-size:12px;line-height:125%;font-family:Lavi;-inkscape-font-specification:Lavi;text-align:center;letter-spacing:0px;word-spacing:0px;text-anchor:middle;fill:#000000;fill-opacity:1;stroke:none;stroke-width:0.80000001;stroke-miterlimit:4;stroke-dasharray:none"
       x="2008.6973"
       y="2037.4711"
       id="text4246-2-3-1-3-9-9-6"
       sodipodi:linespacing="125%"><tspan
         sodipodi:role="line"
         style="font-size:45px;stroke:#000000;stroke-width:0.80000001;stroke-miterlimit:4;stroke-dasharray:none;stroke-opacity:1"
         x="2008.6973"
         y="2037.4711"
         id="tspan4359-1">Carrot ?!</tspan><tspan
         sodipodi:role="line"
         style="font-size:45px;stroke-width:0.80000001;stroke-miterlimit:4;stroke-dasharray:none"
         x="2008.6973"
         y="2093.7212"
         id="tspan4514">Mais qu'est-ce</tspan><tspan
         sodipodi:role="line"
         style="font-size:45px;stroke-width:0.80000001;stroke-miterlimit:4;stroke-dasharray:none"
         x="2008.6973"
         y="2149.9712"
         id="tspan4518">que tu fais ?!</tspan></text>
    <text
       xml:space="preserve"
       style="font-style:normal;font-variant:normal;font-weight:normal;font-stretch:normal;font-size:45px;line-height:125%;font-family:Lavi;-inkscape-font-specification:'Lavi, Normal';text-align:center;letter-spacing:0px;word-spacing:0px;writing-mode:lr-tb;text-anchor:middle;fill:#000000;fill-opacity:1;stroke:none"
       x="2201.4016"
       y="2267.2786"
       id="text4246-2-3-1-3-9-9-6-8"
       sodipodi:linespacing="125%"><tspan
         sodipodi:role="line"
         id="tspan3504"
         x="2201.4016"
         y="2267.2786">Réveille-toi !</tspan><tspan
         sodipodi:role="line"
         id="tspan3506"
         x="2201.4016"
         y="2323.5286">Ça commence !</tspan><tspan
         sodipodi:role="line"
         id="tspan3508"
         x="2201.4016"
         y="2379.7786">Et tout le</tspan><tspan
         sodipodi:role="line"
         id="tspan3510"
         x="2201.4016"
         y="2436.0286">monde nous</tspan><tspan
         sodipodi:role="line"
         id="tspan3512"
         x="2201.4016"
         y="2492.2786">regarde !</tspan></text>
    <text
       xml:space="preserve"
       style="font-style:normal;font-variant:normal;font-weight:normal;font-stretch:normal;font-size:14.25572395px;line-height:125%;font-family:Lavi;-inkscape-font-specification:Lavi;letter-spacing:0px;word-spacing:0px;display:inline;fill:#000000;fill-opacity:1;stroke:#000000;stroke-width:1.76434541;stroke-miterlimit:4;stroke-dasharray:none;stroke-opacity:1"
       x="3247.6042"
       y="3512.4951"
       id="text4580-1-7-3-6-2"
       sodipodi:linespacing="125%"
       transform="matrix(0.8196003,-0.49493234,-0.1513103,1.3114787,0,0)"><tspan
         sodipodi:role="line"
         id="tspan4582-8-5-6-1-8"
         x="3247.6042"
         y="3512.4951"
         style="font-size:56.04114914px;fill:#000000;stroke-width:1.76434541;stroke-miterlimit:4;stroke-dasharray:none">Pok!</tspan></text>
    <use
       style=""
       x="0"
       y="0"
       xlink:href="#text4580-1-7-3-6"
       id="use4205"
       transform="matrix(0.76095162,0,0,0.73309209,451.75807,1241.7241)"
       width="100%"
       height="100%" />
    <use
       style=""
       x="0"
       y="0"
       xlink:href="#use4205"
       id="use4207"
       transform="translate(80.675924,58.860273)"
       width="100%"
       height="100%" />
    <use
       style=""
       x="0"
       y="0"
       xlink:href="#use4207"
       id="use4209"
       transform="matrix(0.89450352,-0.07296573,0.07079928,0.86794456,-285.77472,206.70599)"
       width="100%"
       height="100%" />
    <use
       style=""
       x="0"
       y="0"
       xlink:href="#use4209"
       id="use4211"
       transform="matrix(1.2242752,0,0,1.1562701,19.033193,-152.92185)"
       width="100%"
       height="100%" />
    <use
       style=""
       x="0"
       y="0"
       xlink:href="#use4211"
       id="use4213"
       transform="matrix(0.79400936,0,0,0.74351129,86.338619,242.91653)"
       width="100%"
       height="100%" />
    <use
       style=""
       x="0"
       y="0"
       xlink:href="#use4213"
       id="use4215"
       transform="translate(50.088058,-418.78604)"
       width="100%"
       height="100%" />
    <use
       style=""
       x="0"
       y="0"
       xlink:href="#use4205"
       id="use4217"
       transform="matrix(1.190104,0,0,1.1764056,1873.1319,-225.19177)"
       width="100%"
       height="100%" />
    <use
       style=""
       x="0"
       y="0"
       xlink:href="#use4207"
       id="use4219"
       transform="translate(1548.1581,-584.95481)"
       width="100%"
       height="100%" />
    <use
       style=""
       x="0"
       y="0"
       xlink:href="#use4209"
       id="use4221"
       transform="translate(1844.0411,-445.09153)"
       width="100%"
       height="100%" />
    <use
       style=""
       x="0"
       y="0"
       xlink:href="#use4211"
       id="use4223"
       transform="translate(1859.8806,-76.505052)"
       width="100%"
       height="100%" />
    <use
       style=""
       x="0"
       y="0"
       xlink:href="#use4213"
       id="use4225"
       transform="translate(1870.3348,10.612501)"
       width="100%"
       height="100%" />
    <use
       style=""
       x="0"
       y="0"
       xlink:href="#use4219"
       id="use4227"
       transform="matrix(1.3759736,0,0,1.3761542,-401.50883,57.282084)"
       width="100%"
       height="100%" />
    <use
       style=""
       x="0"
       y="0"
       xlink:href="#use4227"
       id="use4229"
       transform="translate(-1780.2077,155.54445)"
       width="100%"
       height="100%" />
    <use
       style=""
       x="0"
       y="0"
       xlink:href="#use4215"
       id="use4653"
       transform="matrix(0.81994896,0,0,0.82746843,99.665013,112.72301)"
       width="100%"
       height="100%" />
    <use
       style=""
       x="0"
       y="0"
       xlink:href="#use4653"
       id="use4655"
       transform="matrix(0.81766718,0,0,0.82071082,134.84237,227.33949)"
       width="100%"
       height="100%" />
    <use
       style=""
       x="0"
       y="0"
       xlink:href="#use4655"
       id="use4657"
       transform="translate(1587.1235,38.014935)"
       width="100%"
       height="100%" />
    <use
       style=""
       x="0"
       y="0"
       xlink:href="#use4657"
       id="use4659"
       transform="translate(76.029869,6.3358219)"
       width="100%"
       height="100%" />
    <use
       style=""
       x="0"
       y="0"
       xlink:href="#use4659"
       id="use4661"
       transform="translate(-250.26499,-60.190312)"
       width="100%"
       height="100%" />
    <use
       style=""
       x="0"
       y="0"
       xlink:href="#use4229"
       id="use4663"
       transform="translate(-285.11201,-256.60081)"
       width="100%"
       height="100%" />
    <use
       style=""
       x="0"
       y="0"
       xlink:href="#use4663"
       id="use4665"
       transform="translate(408.66055,310.4553)"
       width="100%"
       height="100%" />
    <use
       style=""
       x="0"
       y="0"
       xlink:href="#use4665"
       id="use4667"
       transform="matrix(0.7736158,0,0,0.80234503,286.22086,368.18853)"
       width="100%"
       height="100%" />
    <use
       style=""
       x="0"
       y="0"
       xlink:href="#use4667"
       id="use4669"
       transform="matrix(0.82128554,0,0,0.69817771,259.18593,547.41793)"
       width="100%"
       height="100%" />
    <use
       style=""
       x="0"
       y="0"
       xlink:href="#use4669"
       id="use4671"
       transform="matrix(1.1825791,0,0,1.4191735,1037.6716,-783.92212)"
       width="100%"
       height="100%" />
    <use
       style=""
       x="0"
       y="0"
       xlink:href="#use4671"
       id="use4673"
       transform="translate(-107.70898,-6.3358224)"
       width="100%"
       height="100%" />
    <use
       style=""
       x="0"
       y="0"
       xlink:href="#use4673"
       id="use4675"
       transform="translate(342.13441,-6.3358224)"
       width="100%"
       height="100%" />
    <use
       style=""
       x="0"
       y="0"
       xlink:href="#use4669"
       id="use4677"
       transform="translate(966.21292,-9.5037337)"
       width="100%"
       height="100%" />
    <use
       style=""
       x="0"
       y="0"
       xlink:href="#use4215"
       id="use4679"
       transform="translate(-82.365692,-31.679112)"
       width="100%"
       height="100%" />
    <use
       style=""
       x="0"
       y="0"
       xlink:href="#use4679"
       id="use4681"
       transform="translate(1669.4892,104.54107)"
       width="100%"
       height="100%" />
    <use
       style=""
       x="0"
       y="0"
       xlink:href="#use4215"
       id="use4683"
       transform="translate(-161.56347,262.93663)"
       width="100%"
       height="100%" />
    <text
       xml:space="preserve"
       style="font-style:normal;font-variant:normal;font-weight:normal;font-stretch:normal;font-size:21.10050201px;line-height:125%;font-family:Lavi;-inkscape-font-specification:Lavi;text-align:center;letter-spacing:0px;word-spacing:0px;text-anchor:middle;fill:#000000;fill-opacity:1;stroke:#000000;stroke-width:4.57177544;stroke-miterlimit:4;stroke-dasharray:none;stroke-opacity:1"
       x="1131.2566"
       y="3513.3232"
       id="text4246-2-3-1-3-9-3-7-9-5-3"
       sodipodi:linespacing="125%"
       transform="matrix(1.0071555,-0.25739705,0.15994131,0.95201941,0,0)"><tspan
         sodipodi:role="line"
         style="font-size:79.12689209px;stroke:#000000;stroke-width:4.57177544;stroke-miterlimit:4;stroke-dasharray:none;stroke-opacity:1"
         x="1131.2566"
         y="3513.3232"
         id="tspan4814-3-3-7"> Z</tspan></text>
    <text
       xml:space="preserve"
       style="font-style:normal;font-variant:normal;font-weight:normal;font-stretch:normal;font-size:14.53482914px;line-height:125%;font-family:Lavi;-inkscape-font-specification:Lavi;text-align:center;letter-spacing:0px;word-spacing:0px;text-anchor:middle;fill:#000000;fill-opacity:1;stroke:#000000;stroke-width:6.24900007;stroke-miterlimit:4;stroke-dasharray:none;stroke-opacity:1"
       x="635.61292"
       y="4089.3049"
       id="text4246-2-3-1-3-9-3-7-9-5-3-9"
       sodipodi:linespacing="125%"
       transform="matrix(1.1500733,-0.29915196,0.2395621,0.80719597,0,0)"><tspan
         sodipodi:role="line"
         style="font-size:54.50561905px;stroke:#000000;stroke-width:6.24900007;stroke-miterlimit:4;stroke-dasharray:none;stroke-opacity:1"
         x="635.61292"
         y="4089.3049"
         id="tspan4814-3-3-7-1"> Z</tspan></text>
    <text
       xml:space="preserve"
       style="font-style:normal;font-variant:normal;font-weight:normal;font-stretch:normal;font-size:11.9988203px;line-height:125%;font-family:Lavi;-inkscape-font-specification:Lavi;text-align:center;letter-spacing:0px;word-spacing:0px;text-anchor:middle;fill:#000000;fill-opacity:1;stroke:#000000;stroke-width:5.63800001;stroke-miterlimit:4;stroke-dasharray:none;stroke-opacity:1"
       x="647.33813"
       y="4121.8027"
       id="text4246-2-3-1-3-9-3-7-9-5-3-9-2"
       sodipodi:linespacing="125%"
       transform="matrix(1.1393099,-0.30197813,0.23732007,0.81482178,0,0)"><tspan
         sodipodi:role="line"
         style="font-size:44.99558258px;stroke:#000000;stroke-width:5.63800001;stroke-miterlimit:4;stroke-dasharray:none;stroke-opacity:1"
         x="647.33813"
         y="4121.8027"
         id="tspan4814-3-3-7-1-7"> Z</tspan></text>
  </g>
</svg>
